<!DOCTYPE svg PUBLIC "-//W3C//DTD SVG 20010904//EN" "http://www.w3.org/TR/2001/REC-SVG-20010904/DTD/svg10.dtd">
<svg version="1.0" xmlns="http://www.w3.org/2000/svg" width="746px" height="194px" viewBox="0 0 7460 1940" preserveAspectRatio="xMidYMid meet">
<g id="layer101" fill="#262525" stroke="none">
 <path d="M4693 1827 c-10 -13 -47 -85 -83 -160 -36 -75 -68 -136 -72 -137 -5 0 -8 70 -8 155 l0 155 -60 0 -60 0 0 -196 0 -196 34 -34 c30 -30 40 -34 84 -34 74 0 98 25 167 175 33 69 62 125 65 125 4 0 33 -57 66 -126 69 -149 93 -174 166 -174 44 0 54 4 84 34 l34 34 0 196 0 196 -60 0 -59 0 -3 -157 -3 -158 -74 145 c-40 80 -80 153 -89 163 -24 27 -105 24 -129 -6z"/>
 <path d="M7254 1832 c-11 -9 -77 -82 -145 -162 l-124 -145 -3 158 -3 157 -64 0 -65 0 0 -205 c0 -205 0 -206 25 -230 20 -21 34 -25 79 -25 69 0 81 10 226 183 l105 125 3 -149 3 -149 65 0 65 0 -3 211 c-3 208 -3 211 -27 230 -30 25 -108 25 -137 1z"/>
 <path d="M2070 1835 c0 -3 39 -92 87 -198 56 -123 99 -204 119 -224 29 -30 38 -33 91 -33 79 0 113 22 148 97 46 95 165 356 165 360 0 2 -33 3 -74 3 l-75 0 -12 -35 -13 -35 -131 0 -131 0 -13 35 -12 35 -75 0 c-41 0 -74 -2 -74 -5z m364 -222 c-44 -100 -55 -116 -66 -105 -6 6 -26 45 -44 86 l-33 76 84 0 84 0 -25 -57z"/>
 <path d="M2755 1831 c-11 -5 -29 -19 -40 -31 -18 -20 -20 -39 -23 -216 l-3 -194 65 0 66 0 0 153 c0 106 4 157 12 165 15 15 215 16 238 2 12 -7 16 -40 18 -165 l3 -155 66 0 65 0 -4 184 c-3 169 -5 187 -24 213 -36 49 -55 53 -244 52 -96 0 -184 -4 -195 -8z"/>
 <path d="M3450 1675 l0 -165 -100 0 -100 0 0 -60 0 -60 265 0 265 0 0 60 0 60 -100 0 -100 0 0 165 0 165 -65 0 -65 0 0 -165z"/>
 <path d="M3906 1820 c-56 -28 -76 -48 -102 -105 -54 -115 -8 -253 100 -304 39 -18 64 -21 166 -21 132 0 173 11 224 58 85 80 89 239 8 326 -50 53 -93 66 -232 65 -104 0 -132 -3 -164 -19z m295 -138 c39 -44 39 -90 0 -134 -27 -30 -34 -33 -104 -36 -121 -6 -187 30 -187 102 0 75 57 107 178 104 80 -3 85 -4 113 -36z"/>
 <path d="M5160 1835 c0 -3 39 -92 87 -198 56 -123 99 -204 119 -224 29 -30 38 -33 91 -33 79 0 113 22 148 97 46 95 165 356 165 360 0 2 -33 3 -74 3 l-75 0 -12 -35 -13 -35 -131 0 -131 0 -13 35 -12 35 -75 0 c-41 0 -74 -2 -74 -5z m364 -222 c-44 -100 -55 -116 -66 -105 -6 6 -26 45 -44 86 l-33 76 84 0 84 0 -25 -57z"/>
 <path d="M5890 1675 l0 -165 -100 0 -100 0 0 -60 0 -60 265 0 265 0 0 60 0 60 -100 0 -100 0 0 165 0 165 -65 0 -65 0 0 -165z"/>
 <path d="M6346 1820 c-56 -28 -76 -48 -102 -105 -54 -115 -8 -253 100 -304 39 -18 64 -21 166 -21 132 0 173 11 224 58 85 80 89 239 8 326 -50 53 -93 66 -232 65 -104 0 -132 -3 -164 -19z m295 -138 c39 -44 39 -90 0 -134 -27 -30 -34 -33 -104 -36 -121 -6 -187 30 -187 102 0 75 57 107 178 104 80 -3 85 -4 113 -36z"/>
 <path d="M880 1755 c-11 -59 -15 -65 -37 -65 -13 0 -32 -4 -41 -9 -9 -4 -29 -11 -43 -14 -23 -6 -29 -1 -53 43 -30 55 -38 58 -91 33 l-36 -18 4 -67 c2 -36 1 -70 -2 -75 -6 -9 -78 -64 -98 -77 -8 -4 -31 6 -57 23 l-43 30 -32 -39 c-37 -47 -38 -63 -7 -114 l23 -39 -27 -41 c-14 -23 -32 -56 -40 -73 -12 -32 -33 -43 -45 -23 -3 6 -22 10 -40 10 -30 0 -37 -5 -50 -36 -24 -58 -19 -80 24 -114 34 -28 38 -35 32 -63 l-7 -32 -92 -3 -92 -3 0 -59 0 -59 92 -3 c90 -3 92 -4 99 -30 6 -23 1 -31 -32 -58 -43 -34 -47 -51 -23 -110 18 -44 12 -43 99 -24 16 4 27 -9 59 -66 l38 -72 -26 -50 -26 -49 37 -44 36 -44 44 30 c26 18 48 27 56 22 6 -4 33 -23 59 -42 l47 -34 -6 -68 -6 -67 41 -21 c23 -12 43 -21 46 -21 4 0 52 67 70 97 1 1 20 -2 41 -7 22 -5 52 -11 67 -14 20 -5 28 -14 32 -36 3 -16 9 -44 12 -60 5 -29 8 -30 59 -30 54 0 54 0 64 38 6 20 11 46 11 58 0 17 11 23 70 36 l70 15 31 -49 c17 -26 34 -48 37 -48 3 0 25 10 49 21 l44 21 -6 67 -6 66 56 43 57 44 43 -31 43 -31 36 40 c20 22 36 45 36 51 0 5 -11 30 -25 55 -25 45 -25 46 -6 72 10 15 28 46 40 70 16 31 27 42 39 38 9 -2 33 -7 53 -10 36 -6 36 -6 54 47 l18 54 -41 39 c-34 32 -40 44 -35 67 l5 27 94 0 94 0 0 60 0 60 -94 0 -93 0 -7 33 c-6 29 -2 36 35 71 l42 39 -19 55 c-18 54 -18 54 -53 48 -20 -3 -44 -7 -54 -8 -12 -2 -28 17 -56 67 l-39 71 24 48 c13 26 24 53 24 59 -1 7 -16 29 -34 50 l-33 39 -45 -32 -45 -32 -57 44 -57 43 6 66 6 66 -36 22 c-20 11 -43 21 -51 21 -8 0 -28 -22 -45 -49 l-30 -50 -47 15 c-26 7 -57 14 -68 14 -18 0 -22 8 -28 50 -10 78 -12 80 -71 80 l-53 0 -12 -65z m201 -204 c216 -55 379 -222 470 -480 10 -30 19 -60 19 -68 0 -11 -108 -13 -624 -13 l-624 0 8 33 c13 58 69 186 106 244 53 83 158 184 238 228 131 73 267 92 407 56z m489 -684 c0 -17 -37 -122 -59 -166 -45 -93 -80 -142 -155 -216 -112 -109 -264 -175 -407 -175 -190 0 -392 115 -508 290 -39 58 -49 79 -87 174 -43 107 -111 96 596 96 341 0 620 -1 620 -3z"/>
 <path d="M2030 773 c0 -502 2 -541 19 -578 22 -48 53 -78 106 -102 37 -17 90 -18 703 -21 l662 -3 0 170 0 171 -531 0 c-346 0 -537 4 -550 10 -16 9 -19 22 -19 90 l0 80 550 0 550 0 0 155 0 155 -550 0 -550 0 0 205 0 205 -195 0 -195 0 0 -537z"/>
 <path d="M3670 1150 l0 -160 534 0 c550 0 586 -2 606 -40 18 -34 11 -75 -16 -101 l-26 -24 -401 -6 c-455 -6 -478 -9 -589 -89 -223 -159 -187 -485 67 -605 100 -47 109 -48 733 -52 l592 -5 0 171 0 171 -530 0 c-580 0 -578 0 -598 57 -5 16 -6 37 -2 48 19 50 16 50 454 56 392 5 414 6 471 27 166 61 265 188 265 339 0 168 -104 299 -281 354 -57 18 -101 19 -670 19 l-609 0 0 -160z"/>
 <path d="M5380 690 l0 -620 195 0 195 0 0 620 0 620 -195 0 -195 0 0 -620z"/>
 <path d="M6491 1299 c-243 -48 -439 -202 -518 -407 -31 -81 -42 -226 -23 -315 33 -160 161 -324 316 -404 175 -91 271 -103 807 -103 l367 0 0 169 0 170 -432 3 -433 3 -66 31 c-114 54 -170 130 -177 242 -4 52 0 71 23 117 31 64 91 117 167 148 51 21 68 22 486 25 l432 3 0 164 0 165 -452 -1 c-249 -1 -473 -5 -497 -10z"/>
 </g>
<g id="layer102" fill="#e1221a" stroke="none">
 <path d="M880 1755 c-11 -59 -15 -65 -37 -65 -13 0 -32 -4 -41 -9 -9 -4 -29 -11 -43 -14 -23 -6 -29 -1 -53 43 -30 55 -38 58 -91 33 l-36 -18 4 -67 c2 -36 1 -70 -2 -75 -6 -9 -78 -64 -98 -77 -8 -4 -31 6 -57 23 l-43 30 -32 -39 c-37 -47 -38 -63 -7 -114 l23 -39 -27 -41 c-14 -23 -32 -56 -40 -73 -12 -32 -33 -43 -45 -23 -3 6 -22 10 -40 10 -30 0 -37 -5 -50 -36 -24 -58 -19 -80 24 -114 34 -28 38 -35 32 -63 l-7 -32 -92 -3 -92 -3 0 -59 0 -59 92 -3 c90 -3 92 -4 99 -30 6 -23 1 -31 -32 -58 -43 -34 -47 -51 -23 -110 18 -44 12 -43 99 -24 16 4 27 -9 59 -66 l38 -72 -26 -50 -26 -49 37 -44 36 -44 44 30 c26 18 48 27 56 22 6 -4 33 -23 59 -42 l47 -34 -6 -68 -6 -67 41 -21 c23 -12 43 -21 46 -21 4 0 52 67 70 97 1 1 20 -2 41 -7 22 -5 52 -11 67 -14 20 -5 28 -14 32 -36 3 -16 9 -44 12 -60 5 -29 8 -30 59 -30 54 0 54 0 64 38 6 20 11 46 11 58 0 17 11 23 70 36 l70 15 31 -49 c17 -26 34 -48 37 -48 3 0 25 10 49 21 l44 21 -6 67 -6 66 56 43 57 44 43 -31 43 -31 36 40 c20 22 36 45 36 51 0 5 -11 30 -25 55 -25 45 -25 46 -6 72 10 15 28 46 40 70 16 31 27 42 39 38 9 -2 33 -7 53 -10 36 -6 36 -6 54 47 l18 54 -41 39 c-34 32 -40 44 -35 67 l5 27 94 0 94 0 0 60 0 60 -94 0 -93 0 -7 33 c-6 29 -2 36 35 71 l42 39 -19 55 c-18 54 -18 54 -53 48 -20 -3 -44 -7 -54 -8 -12 -2 -28 17 -56 67 l-39 71 24 48 c13 26 24 53 24 59 -1 7 -16 29 -34 50 l-33 39 -45 -32 -45 -32 -57 44 -57 43 6 66 6 66 -36 22 c-20 11 -43 21 -51 21 -8 0 -28 -22 -45 -49 l-30 -50 -47 15 c-26 7 -57 14 -68 14 -18 0 -22 8 -28 50 -10 78 -12 80 -71 80 l-53 0 -12 -65z m201 -204 c216 -55 379 -222 470 -480 10 -30 19 -60 19 -68 0 -11 -108 -13 -624 -13 l-624 0 8 33 c13 58 69 186 106 244 53 83 158 184 238 228 131 73 267 92 407 56z m489 -684 c0 -17 -37 -122 -59 -166 -45 -93 -80 -142 -155 -216 -112 -109 -264 -175 -407 -175 -190 0 -392 115 -508 290 -39 58 -49 79 -87 174 -43 107 -111 96 596 96 341 0 620 -1 620 -3z"/>
 </g>
<g id="layer103" fill="#f7cd2f" stroke="none">
 <path d="M30 900 l0 -29 92 -3 c90 -3 92 -4 99 -30 6 -23 1 -31 -32 -58 -43 -34 -47 -51 -23 -111 14 -33 21 -40 38 -36 85 20 78 23 120 -54 l38 -71 -26 -50 -26 -49 37 -44 36 -44 44 30 c26 18 48 27 56 22 6 -4 33 -23 59 -42 l47 -34 -6 -68 -6 -67 41 -21 c23 -12 43 -21 46 -21 4 0 52 67 70 97 1 1 20 -2 41 -7 22 -5 52 -11 67 -14 20 -5 28 -14 32 -36 3 -16 9 -43 12 -60 5 -29 8 -30 59 -30 54 0 54 0 64 37 6 21 11 47 11 59 0 17 11 23 70 36 l70 15 31 -49 c17 -26 34 -48 37 -48 3 0 25 10 49 21 l44 21 -6 67 -6 66 56 43 57 44 43 -31 43 -31 36 40 c20 22 36 45 36 51 0 5 -11 30 -25 55 -25 45 -25 46 -6 72 10 15 28 46 40 70 16 31 27 42 39 38 9 -2 33 -7 53 -10 36 -6 36 -6 54 47 l18 54 -41 39 c-34 32 -40 44 -35 67 l5 27 94 0 94 0 0 30 0 30 -920 0 -920 0 0 -30z m1540 -33 c0 -17 -37 -122 -59 -166 -45 -93 -80 -142 -155 -216 -112 -109 -264 -175 -407 -175 -190 0 -392 115 -508 290 -39 58 -49 79 -87 174 -43 107 -111 96 596 96 341 0 620 -1 620 -3z"/>
 </g>

</svg>