<!DOCTYPE svg PUBLIC "-//W3C//DTD SVG 20010904//EN" "http://www.w3.org/TR/2001/REC-SVG-20010904/DTD/svg10.dtd">
<svg version="1.0" xmlns="http://www.w3.org/2000/svg" width="402px" height="384px" viewBox="0 0 4020 3840" preserveAspectRatio="xMidYMid meet">
<g id="layer101" fill="#4c4c4c" stroke="none">
 <path d="M1879 3681 c-12 -55 -25 -105 -29 -111 -4 -6 -38 -16 -76 -21 -38 -5 -94 -15 -124 -24 -30 -8 -62 -15 -71 -15 -8 0 -43 39 -78 86 -70 97 -63 95 -170 47 -70 -31 -68 -26 -49 -162 11 -84 11 -84 -13 -103 -39 -31 -219 -148 -227 -148 -4 0 -45 23 -91 51 l-84 50 -64 -63 c-34 -34 -63 -68 -63 -75 0 -8 23 -50 50 -94 28 -44 47 -86 43 -92 -4 -7 -27 -39 -52 -72 -51 -66 -63 -84 -87 -132 -13 -26 -23 -33 -46 -33 -16 0 -37 4 -46 9 -9 4 -44 11 -78 15 l-61 7 -31 -75 c-18 -42 -32 -82 -32 -90 0 -8 36 -40 80 -73 43 -32 79 -63 80 -69 0 -6 -7 -34 -15 -62 l-16 -52 -189 0 -190 0 0 -45 0 -45 1850 0 1850 0 0 45 0 45 -188 0 -188 0 -19 61 c-11 38 -14 63 -8 68 51 33 153 118 153 127 0 10 -57 153 -64 161 -1 2 -43 -4 -92 -12 -49 -8 -96 -15 -104 -15 -9 0 -31 26 -49 58 -19 31 -56 87 -82 124 l-48 67 56 91 56 92 -64 64 c-35 35 -67 64 -70 64 -4 0 -44 -22 -88 -50 -44 -27 -85 -50 -91 -50 -5 0 -43 24 -84 53 -40 28 -95 65 -121 80 l-48 28 8 67 c5 37 9 89 9 115 l1 48 -74 30 c-41 16 -80 28 -87 25 -7 -2 -40 -41 -74 -86 -52 -68 -66 -81 -84 -76 -11 4 -70 16 -131 27 -60 12 -114 22 -120 24 -5 1 -21 50 -34 109 l-24 106 -98 0 -98 0 -22 -99z m311 -321 c120 -16 163 -27 265 -64 80 -29 249 -121 320 -174 94 -70 231 -210 297 -302 84 -119 176 -311 192 -402 l7 -38 -1271 0 c-698 0 -1270 2 -1270 5 0 43 80 245 129 325 17 28 31 53 31 56 0 3 29 43 64 88 74 94 195 214 279 275 150 110 382 206 557 231 77 10 322 11 400 0z"/>
 <path d="M1282 2708 c3 -7 15 -43 28 -80 31 -90 47 -89 83 6 15 40 27 76 27 79 0 16 -18 5 -28 -18 -9 -19 -19 -25 -42 -25 -23 0 -33 6 -42 25 -11 25 -34 36 -26 13z m84 -80 c-7 -33 -13 -44 -21 -36 -3 2 -8 19 -11 36 -6 28 -4 32 16 32 20 0 22 -4 16 -32z"/>
 <path d="M1457 2702 c-23 -25 -24 -142 -2 -142 12 0 15 15 15 71 l0 70 38 -3 37 -3 3 -67 c4 -90 22 -88 22 2 0 58 -3 71 -19 80 -30 16 -76 12 -94 -8z"/>
 <path d="M1640 2650 c0 -68 -1 -70 -25 -70 -14 0 -25 -4 -25 -10 0 -6 28 -10 65 -10 37 0 65 4 65 10 0 6 -11 10 -25 10 -24 0 -25 2 -25 70 0 56 -3 70 -15 70 -12 0 -15 -14 -15 -70z"/>
 <path d="M1758 2709 c-26 -14 -25 -109 0 -132 22 -20 83 -22 100 -5 7 7 12 37 12 68 0 31 -5 61 -12 68 -15 15 -76 15 -100 1z m90 -66 l-3 -58 -37 -3 -38 -3 0 60 0 61 40 0 41 0 -3 -57z"/>
 <path d="M1910 2640 c0 -70 2 -80 18 -80 12 0 24 19 41 66 26 73 28 72 56 -13 13 -39 22 -53 36 -53 17 0 19 8 19 80 0 63 -3 80 -14 80 -11 0 -16 -15 -18 -52 l-3 -53 -20 53 c-11 28 -24 52 -30 52 -6 0 -21 -28 -35 -62 l-25 -63 -3 63 c-4 90 -22 76 -22 -18z"/>
 <path d="M2129 2643 c16 -43 35 -79 43 -81 10 -2 24 23 45 78 22 59 27 80 17 80 -8 0 -16 -11 -20 -25 -5 -21 -12 -25 -40 -25 -28 0 -36 5 -44 25 -5 14 -14 25 -19 25 -6 0 2 -35 18 -77z m65 -5 c-14 -49 -22 -55 -33 -25 -16 41 -14 47 15 47 22 0 24 -3 18 -22z"/>
 <path d="M2298 2668 c0 -29 -1 -61 0 -70 1 -13 -6 -18 -23 -18 -14 0 -25 -4 -25 -10 0 -6 30 -10 71 -10 44 0 68 4 64 10 -3 6 -15 10 -26 10 -17 0 -19 7 -19 70 0 63 -2 70 -20 70 -17 0 -20 -7 -22 -52z"/>
 <path d="M2417 2702 c-24 -26 -23 -104 1 -125 25 -23 85 -22 105 1 25 28 23 118 -2 132 -31 16 -86 12 -104 -8z m93 -63 l0 -60 -37 3 -38 3 -3 58 -3 57 41 0 40 0 0 -61z"/>
 <path d="M2570 2640 c0 -101 14 -104 67 -18 l38 62 3 -62 c2 -46 7 -62 17 -62 12 0 15 17 15 80 0 70 -2 80 -17 80 -11 0 -34 -25 -58 -63 l-40 -62 -3 63 c-4 90 -22 76 -22 -18z"/>
 <path d="M870 1932 l0 -299 23 -21 c23 -21 30 -22 285 -22 l262 0 0 60 0 60 -230 0 -230 0 0 260 0 260 -55 0 -55 0 0 -298z"/>
 <path d="M1560 2170 l0 -60 239 0 c237 0 240 0 255 -22 23 -32 20 -71 -6 -95 -21 -20 -37 -22 -198 -25 -155 -3 -179 -5 -210 -24 -49 -28 -77 -76 -86 -142 -6 -49 -4 -63 17 -102 27 -49 72 -85 130 -100 21 -6 122 -9 231 -8 l193 3 3 58 3 57 -208 0 c-239 0 -253 4 -253 69 0 73 7 76 197 79 92 1 178 5 190 7 29 7 90 60 109 96 34 67 6 186 -53 226 -60 41 -78 43 -318 43 l-235 0 0 -60z"/>
 <path d="M2320 1910 l0 -321 58 3 57 3 3 318 2 317 -60 0 -60 0 0 -320z"/>
 <path d="M2690 2208 c-33 -17 -51 -35 -67 -68 -21 -41 -23 -57 -23 -228 0 -198 7 -228 62 -280 40 -36 81 -42 300 -42 l208 0 0 60 0 60 -214 0 c-169 0 -216 3 -225 14 -8 9 -11 70 -9 197 l3 184 228 3 227 2 0 60 0 60 -223 0 c-211 0 -225 -1 -267 -22z"/>
 <path d="M1030 1915 l0 -55 180 0 180 0 0 55 0 55 -180 0 -180 0 0 -55z"/>
 <path d="M150 1505 l0 -45 190 0 189 0 16 -52 c8 -28 15 -56 15 -62 -1 -6 -37 -37 -80 -69 -44 -33 -80 -65 -80 -73 0 -8 14 -48 31 -89 35 -83 31 -81 129 -60 100 22 115 20 134 -17 22 -45 33 -60 93 -144 l53 -73 -55 -88 -54 -88 68 -68 68 -68 84 50 c46 28 87 51 91 51 8 0 188 -117 227 -148 24 -19 24 -19 13 -103 -19 -136 -21 -131 49 -162 107 -48 100 -50 170 47 35 47 70 86 78 86 9 0 41 -7 71 -15 30 -9 86 -19 124 -24 38 -5 72 -15 76 -21 4 -6 17 -56 29 -111 l22 -99 98 0 98 0 25 107 25 108 49 7 c27 5 92 18 144 29 90 20 95 21 105 4 21 -36 118 -155 127 -155 4 0 43 14 84 32 l76 32 -5 55 c-4 31 -9 82 -13 113 l-7 57 48 28 c26 15 81 52 121 81 41 28 78 52 82 52 4 0 45 -23 91 -51 l84 -50 68 68 68 68 -54 89 -55 88 48 67 c27 36 64 92 83 123 18 32 40 58 49 58 8 0 55 -7 104 -15 49 -8 91 -14 92 -12 7 8 64 151 64 161 0 9 -100 92 -151 126 -4 3 -1 34 8 68 l15 62 189 0 189 0 0 45 0 45 -1850 0 -1850 0 0 -45z m3120 -50 c0 -19 -34 -126 -58 -183 -71 -168 -171 -312 -313 -447 -179 -170 -373 -274 -629 -337 -38 -9 -122 -13 -275 -12 -207 0 -226 2 -315 27 -241 67 -416 165 -584 326 -70 68 -206 229 -206 245 0 3 -14 28 -31 56 -49 80 -129 282 -129 325 0 3 572 5 1270 5 699 0 1270 -2 1270 -5z"/>
 </g>
<g id="layer102" fill="#e1221a" stroke="none">
 <path d="M1879 3681 c-12 -55 -25 -105 -29 -111 -4 -6 -38 -16 -76 -21 -38 -5 -94 -15 -124 -24 -30 -8 -62 -15 -71 -15 -8 0 -43 39 -78 86 -70 97 -63 95 -170 47 -70 -31 -68 -26 -49 -162 11 -84 11 -84 -13 -103 -39 -31 -219 -148 -227 -148 -4 0 -45 23 -91 51 l-84 50 -64 -63 c-34 -34 -63 -68 -63 -75 0 -8 23 -50 50 -94 28 -44 47 -86 43 -92 -4 -7 -27 -39 -52 -72 -51 -66 -63 -84 -87 -132 -13 -26 -23 -33 -46 -33 -16 0 -37 4 -46 9 -9 4 -44 11 -78 15 l-61 7 -31 -75 c-18 -42 -32 -82 -32 -90 0 -8 36 -40 80 -73 43 -32 79 -63 80 -69 0 -6 -7 -34 -15 -62 l-16 -52 -189 0 -190 0 0 -45 0 -45 1850 0 1850 0 0 45 0 45 -188 0 -188 0 -19 61 c-11 38 -14 63 -8 68 51 33 153 118 153 127 0 10 -57 153 -64 161 -1 2 -43 -4 -92 -12 -49 -8 -96 -15 -104 -15 -9 0 -31 26 -49 58 -19 31 -56 87 -82 124 l-48 67 56 91 56 92 -64 64 c-35 35 -67 64 -70 64 -4 0 -44 -22 -88 -50 -44 -27 -85 -50 -91 -50 -5 0 -43 24 -84 53 -40 28 -95 65 -121 80 l-48 28 8 67 c5 37 9 89 9 115 l1 48 -74 30 c-41 16 -80 28 -87 25 -7 -2 -40 -41 -74 -86 -52 -68 -66 -81 -84 -76 -11 4 -70 16 -131 27 -60 12 -114 22 -120 24 -5 1 -21 50 -34 109 l-24 106 -98 0 -98 0 -22 -99z m311 -321 c120 -16 163 -27 265 -64 80 -29 249 -121 320 -174 94 -70 231 -210 297 -302 84 -119 176 -311 192 -402 l7 -38 -1271 0 c-698 0 -1270 2 -1270 5 0 43 80 245 129 325 17 28 31 53 31 56 0 3 29 43 64 88 74 94 195 214 279 275 150 110 382 206 557 231 77 10 322 11 400 0z"/>
 <path d="M1642 2653 c-2 -70 -3 -72 -29 -76 l-28 -4 28 -2 c35 -1 39 10 34 90 l-3 64 -2 -72z"/>
 <path d="M2048 2664 c-1 -31 0 -58 5 -61 4 -2 7 23 7 56 0 76 -7 79 -12 5z"/>
 <path d="M2300 2670 c-2 -30 -3 -63 -2 -72 1 -13 -6 -18 -23 -18 -14 0 -25 -4 -25 -10 0 -15 36 -12 49 4 8 9 11 40 8 83 l-3 68 -4 -55z"/>
 <path d="M2334 2646 c1 -67 2 -70 29 -77 16 -4 25 -3 21 2 -3 5 -14 9 -24 9 -17 0 -20 9 -23 68 l-3 67 0 -69z"/>
 <path d="M2703 2640 c0 -47 2 -66 4 -42 2 23 2 61 0 85 -2 23 -4 4 -4 -43z"/>
 <path d="M1441 2628 c0 -38 2 -68 7 -68 4 0 6 21 4 48 -5 82 -9 89 -11 20z"/>
 <path d="M2402 2644 c-2 -38 3 -55 16 -67 15 -14 19 -14 19 -3 0 8 -5 14 -11 13 -6 -1 -14 22 -17 53 l-6 55 -1 -51z"/>
 <path d="M1763 2640 c0 -25 2 -35 4 -22 2 12 2 32 0 45 -2 12 -4 2 -4 -23z"/>
 <path d="M2513 2640 c0 -25 2 -35 4 -22 2 12 2 32 0 45 -2 12 -4 2 -4 -23z"/>
 <path d="M2432 1923 l-2 -313 -55 0 c-30 0 -55 -4 -55 -10 0 -15 110 -13 115 3 3 7 4 152 2 322 l-2 310 -3 -312z"/>
 <path d="M3173 2170 c0 -36 2 -50 4 -32 2 17 2 47 0 65 -2 17 -4 3 -4 -33z"/>
 <path d="M2122 1658 l-2 -58 -202 -3 -203 -2 203 -3 c227 -2 216 -6 209 74 l-3 49 -2 -57z"/>
 <path d="M905 1600 c4 -6 105 -10 271 -10 169 0 264 4 264 10 0 6 -97 10 -271 10 -177 0 -268 -3 -264 -10z"/>
 <path d="M2842 1593 c59 -2 158 -2 220 0 62 1 14 3 -107 3 -121 0 -172 -2 -113 -3z"/>
 <path d="M150 1505 l0 -45 190 0 189 0 16 -52 c8 -28 15 -56 15 -62 -1 -6 -37 -37 -80 -69 -44 -33 -80 -65 -80 -73 0 -8 14 -48 31 -89 35 -83 31 -81 129 -60 100 22 115 20 134 -17 22 -45 33 -60 93 -144 l53 -73 -55 -88 -54 -88 68 -68 68 -68 84 50 c46 28 87 51 91 51 8 0 188 -117 227 -148 24 -19 24 -19 13 -103 -19 -136 -21 -131 49 -162 107 -48 100 -50 170 47 35 47 70 86 78 86 9 0 41 -7 71 -15 30 -9 86 -19 124 -24 38 -5 72 -15 76 -21 4 -6 17 -56 29 -111 l22 -99 98 0 98 0 25 107 25 108 49 7 c27 5 92 18 144 29 90 20 95 21 105 4 21 -36 118 -155 127 -155 4 0 43 14 84 32 l76 32 -5 55 c-4 31 -9 82 -13 113 l-7 57 48 28 c26 15 81 52 121 81 41 28 78 52 82 52 4 0 45 -23 91 -51 l84 -50 68 68 68 68 -54 89 -55 88 48 67 c27 36 64 92 83 123 18 32 40 58 49 58 8 0 55 -7 104 -15 49 -8 91 -14 92 -12 7 8 64 151 64 161 0 9 -100 92 -151 126 -4 3 -1 34 8 68 l15 62 189 0 189 0 0 45 0 45 -1850 0 -1850 0 0 -45z m3120 -50 c0 -19 -34 -126 -58 -183 -71 -168 -171 -312 -313 -447 -179 -170 -373 -274 -629 -337 -38 -9 -122 -13 -275 -12 -207 0 -226 2 -315 27 -241 67 -416 165 -584 326 -70 68 -206 229 -206 245 0 3 -14 28 -31 56 -49 80 -129 282 -129 325 0 3 572 5 1270 5 699 0 1270 -2 1270 -5z"/>
 </g>
<g id="layer103" fill="#8c8c8c" stroke="none">
 <path d="M1642 2653 c-2 -70 -3 -72 -29 -76 l-28 -4 28 -2 c35 -1 39 10 34 90 l-3 64 -2 -72z"/>
 <path d="M2048 2664 c-1 -31 0 -58 5 -61 4 -2 7 23 7 56 0 76 -7 79 -12 5z"/>
 <path d="M2300 2670 c-2 -30 -3 -63 -2 -72 1 -13 -6 -18 -23 -18 -14 0 -25 -4 -25 -10 0 -15 36 -12 49 4 8 9 11 40 8 83 l-3 68 -4 -55z"/>
 <path d="M2334 2646 c1 -67 2 -70 29 -77 16 -4 25 -3 21 2 -3 5 -14 9 -24 9 -17 0 -20 9 -23 68 l-3 67 0 -69z"/>
 <path d="M2703 2640 c0 -47 2 -66 4 -42 2 23 2 61 0 85 -2 23 -4 4 -4 -43z"/>
 <path d="M1441 2628 c0 -38 2 -68 7 -68 4 0 6 21 4 48 -5 82 -9 89 -11 20z"/>
 <path d="M2402 2644 c-2 -38 3 -55 16 -67 15 -14 19 -14 19 -3 0 8 -5 14 -11 13 -6 -1 -14 22 -17 53 l-6 55 -1 -51z"/>
 <path d="M1763 2640 c0 -25 2 -35 4 -22 2 12 2 32 0 45 -2 12 -4 2 -4 -23z"/>
 <path d="M2513 2640 c0 -25 2 -35 4 -22 2 12 2 32 0 45 -2 12 -4 2 -4 -23z"/>
 <path d="M2432 1923 l-2 -313 -55 0 c-30 0 -55 -4 -55 -10 0 -15 110 -13 115 3 3 7 4 152 2 322 l-2 310 -3 -312z"/>
 <path d="M3173 2170 c0 -36 2 -50 4 -32 2 17 2 47 0 65 -2 17 -4 3 -4 -33z"/>
 <path d="M2122 1658 l-2 -58 -202 -3 -203 -2 203 -3 c227 -2 216 -6 209 74 l-3 49 -2 -57z"/>
 <path d="M905 1600 c4 -6 105 -10 271 -10 169 0 264 4 264 10 0 6 -97 10 -271 10 -177 0 -268 -3 -264 -10z"/>
 <path d="M2842 1593 c59 -2 158 -2 220 0 62 1 14 3 -107 3 -121 0 -172 -2 -113 -3z"/>
 <path d="M150 1505 l0 -45 190 0 189 0 16 -52 c8 -28 15 -56 15 -62 -1 -6 -37 -37 -80 -69 -44 -33 -80 -65 -80 -73 0 -8 14 -48 31 -89 35 -83 31 -81 129 -60 100 22 115 20 134 -17 22 -45 33 -60 93 -144 l53 -73 -55 -88 -54 -88 68 -68 68 -68 84 50 c46 28 87 51 91 51 8 0 188 -117 227 -148 24 -19 24 -19 13 -103 -19 -136 -21 -131 49 -162 107 -48 100 -50 170 47 35 47 70 86 78 86 9 0 41 -7 71 -15 30 -9 86 -19 124 -24 38 -5 72 -15 76 -21 4 -6 17 -56 29 -111 l22 -99 98 0 98 0 25 107 25 108 49 7 c27 5 92 18 144 29 90 20 95 21 105 4 21 -36 118 -155 127 -155 4 0 43 14 84 32 l76 32 -5 55 c-4 31 -9 82 -13 113 l-7 57 48 28 c26 15 81 52 121 81 41 28 78 52 82 52 4 0 45 -23 91 -51 l84 -50 68 68 68 68 -54 89 -55 88 48 67 c27 36 64 92 83 123 18 32 40 58 49 58 8 0 55 -7 104 -15 49 -8 91 -14 92 -12 7 8 64 151 64 161 0 9 -100 92 -151 126 -4 3 -1 34 8 68 l15 62 189 0 189 0 0 45 0 45 -1850 0 -1850 0 0 -45z m3120 -50 c0 -19 -34 -126 -58 -183 -71 -168 -171 -312 -313 -447 -179 -170 -373 -274 -629 -337 -38 -9 -122 -13 -275 -12 -207 0 -226 2 -315 27 -241 67 -416 165 -584 326 -70 68 -206 229 -206 245 0 3 -14 28 -31 56 -49 80 -129 282 -129 325 0 3 572 5 1270 5 699 0 1270 -2 1270 -5z"/>
 </g>
<g id="layer104" fill="#f7cc2f" stroke="none">
 <path d="M2298 2663 c-2 -32 -1 -65 4 -73 4 -9 8 16 8 58 0 39 -2 72 -4 72 -2 0 -6 -26 -8 -57z"/>
 <path d="M2333 2650 c0 -41 2 -58 4 -37 2 20 2 54 0 75 -2 20 -4 3 -4 -38z"/>
 <path d="M2703 2640 c0 -47 2 -66 4 -42 2 23 2 61 0 85 -2 23 -4 4 -4 -43z"/>
 <path d="M1441 2628 c0 -38 2 -68 7 -68 4 0 6 21 4 48 -5 82 -9 89 -11 20z"/>
 <path d="M905 1600 c4 -6 105 -10 271 -10 169 0 264 4 264 10 0 6 -97 10 -271 10 -177 0 -268 -3 -264 -10z"/>
 <path d="M2320 1600 c0 -5 25 -10 56 -10 34 0 53 4 49 10 -3 6 -28 10 -56 10 -27 0 -49 -4 -49 -10z"/>
 <path d="M1818 1593 c56 -2 148 -2 205 0 56 1 10 3 -103 3 -113 0 -159 -2 -102 -3z"/>
 <path d="M2842 1593 c59 -2 158 -2 220 0 62 1 14 3 -107 3 -121 0 -172 -2 -113 -3z"/>
 <path d="M150 1505 l0 -45 190 0 189 0 16 -52 c8 -28 15 -56 15 -62 -1 -6 -37 -37 -80 -69 -44 -33 -80 -65 -80 -73 0 -8 14 -48 31 -89 35 -83 31 -81 129 -60 100 22 115 20 134 -17 22 -45 33 -60 93 -144 l53 -73 -55 -88 -54 -88 68 -68 68 -68 84 50 c46 28 87 51 91 51 8 0 188 -117 227 -148 24 -19 24 -19 13 -103 -19 -136 -21 -131 49 -162 107 -48 100 -50 170 47 35 47 70 86 78 86 9 0 41 -7 71 -15 30 -9 86 -19 124 -24 38 -5 72 -15 76 -21 4 -6 17 -56 29 -111 l22 -99 98 0 98 0 25 107 25 108 49 7 c27 5 92 18 144 29 90 20 95 21 105 4 21 -36 118 -155 127 -155 4 0 43 14 84 32 l76 32 -5 55 c-4 31 -9 82 -13 113 l-7 57 48 28 c26 15 81 52 121 81 41 28 78 52 82 52 4 0 45 -23 91 -51 l84 -50 68 68 68 68 -54 89 -55 88 48 67 c27 36 64 92 83 123 18 32 40 58 49 58 8 0 55 -7 104 -15 49 -8 91 -14 92 -12 7 8 64 151 64 161 0 9 -100 92 -151 126 -4 3 -1 34 8 68 l15 62 189 0 189 0 0 45 0 45 -1850 0 -1850 0 0 -45z m3120 -50 c0 -19 -34 -126 -58 -183 -71 -168 -171 -312 -313 -447 -179 -170 -373 -274 -629 -337 -38 -9 -122 -13 -275 -12 -207 0 -226 2 -315 27 -241 67 -416 165 -584 326 -70 68 -206 229 -206 245 0 3 -14 28 -31 56 -49 80 -129 282 -129 325 0 3 572 5 1270 5 699 0 1270 -2 1270 -5z"/>
 </g>
<g id="layer105" fill="#c3c3c3" stroke="none">
 <path d="M2298 2663 c-2 -32 -1 -65 4 -73 4 -9 8 16 8 58 0 39 -2 72 -4 72 -2 0 -6 -26 -8 -57z"/>
 <path d="M2333 2650 c0 -41 2 -58 4 -37 2 20 2 54 0 75 -2 20 -4 3 -4 -38z"/>
 <path d="M2703 2640 c0 -47 2 -66 4 -42 2 23 2 61 0 85 -2 23 -4 4 -4 -43z"/>
 <path d="M1441 2628 c0 -38 2 -68 7 -68 4 0 6 21 4 48 -5 82 -9 89 -11 20z"/>
 <path d="M905 1600 c4 -6 105 -10 271 -10 169 0 264 4 264 10 0 6 -97 10 -271 10 -177 0 -268 -3 -264 -10z"/>
 <path d="M2320 1600 c0 -5 25 -10 56 -10 34 0 53 4 49 10 -3 6 -28 10 -56 10 -27 0 -49 -4 -49 -10z"/>
 <path d="M1818 1593 c56 -2 148 -2 205 0 56 1 10 3 -103 3 -113 0 -159 -2 -102 -3z"/>
 <path d="M2842 1593 c59 -2 158 -2 220 0 62 1 14 3 -107 3 -121 0 -172 -2 -113 -3z"/>
 </g>

</svg>